<?xml version="1.0" standalone="no"?>
<!DOCTYPE svg PUBLIC "-//W3C//DTD SVG 20010904//EN"
 "http://www.w3.org/TR/2001/REC-SVG-20010904/DTD/svg10.dtd">
<svg version="1.0" xmlns="http://www.w3.org/2000/svg"
 width="32.000000pt" height="32.000000pt" viewBox="0 0 32.000000 32.000000"
 preserveAspectRatio="xMidYMid meet">

<g transform="translate(0.000000,32.000000) scale(0.100000,-0.100000)"
fill="#000000" stroke="none">
<path d="M11 306 c-8 -9 -11 -46 -9 -103 l3 -88 39 68 c21 38 42 65 46 60 4
-4 2 -37 -5 -73 -8 -35 -13 -66 -11 -68 3 -3 46 63 82 126 38 67 45 23 15 -98
-12 -48 -19 -64 -20 -45 0 17 4 50 10 74 5 24 8 45 6 48 -2 2 -21 -26 -42 -62
-51 -87 -80 -87 -64 0 4 22 6 41 5 43 -2 1 -17 -24 -35 -57 -33 -62 -39 -99
-19 -119 17 -17 279 -17 296 0 14 14 17 174 3 182 -5 3 -7 15 -4 26 7 27 -9
25 -34 -2 -31 -35 -43 -63 -43 -102 0 -39 14 -45 52 -25 16 9 19 8 16 -3 -3
-8 -20 -13 -44 -13 -38 0 -39 1 -42 37 -5 63 64 164 98 143 14 -9 13 38 -2 53
-18 18 -282 17 -297 -2z"/>
</g>
</svg>
