<?xml version="1.0" standalone="no"?>
<!DOCTYPE svg PUBLIC "-//W3C//DTD SVG 20010904//EN"
 "http://www.w3.org/TR/2001/REC-SVG-20010904/DTD/svg10.dtd">
<svg version="1.0" xmlns="http://www.w3.org/2000/svg"
 width="1920.000000pt" height="1080.000000pt" viewBox="0 0 1920.000000 1080.000000"
 preserveAspectRatio="xMidYMid meet">

<g transform="translate(0.000000,1080.000000) scale(0.100000,-0.100000)"
fill="#000000" stroke="none">
<path d="M9168 10000 c-86 -15 -152 -53 -202 -117 -77 -97 -110 -181 -145
-363 -32 -171 -35 -216 -15 -224 10 -4 22 -2 28 4 13 13 53 13 61 0 4 -6 15
-8 26 -5 32 10 79 -17 95 -53 7 -18 18 -31 24 -27 6 4 7 13 1 23 -15 29 -18
146 -3 140 4 -2 24 14 44 35 32 33 34 38 15 35 -16 -2 -22 2 -22 17 0 18 6 20
55 18 l55 -1 -47 14 c-27 8 -48 21 -48 27 0 27 83 158 119 189 45 38 65 80 56
116 -3 13 -3 33 1 45 7 22 8 22 15 -3 4 -14 7 -41 8 -61 1 -37 31 -69 64 -69
27 0 136 -60 150 -82 8 -13 18 -41 22 -63 4 -21 13 -52 21 -67 8 -15 14 -43
14 -63 0 -42 8 -44 41 -9 16 18 20 28 12 31 -15 5 -17 33 -3 33 20 0 9 96 -19
177 -35 100 -71 163 -130 226 -56 60 -88 77 -138 75 -21 -2 -54 0 -73 3 -19 4
-56 3 -82 -1z"/>
<path d="M10671 9989 c-69 -6 -92 -13 -125 -36 -23 -16 -46 -38 -51 -50 -6
-11 -16 -27 -23 -35 -9 -11 -9 -17 1 -27 6 -7 8 -12 2 -11 -5 2 -13 1 -17 0
-5 -1 -11 -3 -15 -5 -5 -1 -16 -5 -25 -8 -10 -4 -25 -9 -33 -12 -36 -11 -40
-67 -17 -250 9 -77 17 -100 41 -130 15 -18 15 -19 -2 -6 -9 8 -21 11 -25 7 -8
-9 31 -78 49 -87 8 -3 24 -11 36 -17 39 -20 42 -14 23 44 -24 69 -13 143 23
159 18 8 21 17 19 46 -3 28 2 42 19 57 14 14 20 28 16 41 -3 12 -1 24 4 27 5
3 9 -2 9 -12 0 -14 2 -14 16 -3 22 18 54 22 70 8 8 -7 28 -9 49 -5 47 9 110
-9 133 -39 23 -29 44 -32 62 -10 12 14 15 13 32 -5 11 -11 40 -26 65 -33 30
-8 48 -19 51 -30 4 -14 12 -18 33 -15 33 5 39 -5 49 -77 l6 -50 17 55 c12 41
16 82 13 161 -5 118 -13 141 -78 223 -47 60 -65 73 -108 81 -18 3 -53 17 -79
30 -50 27 -85 29 -240 14z m244 -55 c17 -1 41 -3 55 -4 22 -1 20 -3 -13 -15
-34 -13 -41 -12 -90 11 -45 22 -48 24 -17 18 19 -4 49 -8 65 -10z m-23 -51
c-6 -3 -10 -9 -6 -14 3 -5 -1 -9 -8 -10 -7 0 -21 -2 -30 -4 -32 -6 -19 21 15
31 30 9 56 6 29 -3z m38 -33 c0 -10 -32 -30 -49 -30 -15 0 -14 27 2 33 21 9
47 7 47 -3z m-432 -32 c-6 -18 -15 -37 -20 -43 -9 -10 -9 -8 11 48 15 38 22
34 9 -5z m-58 -13 c0 -8 -7 -15 -16 -15 -14 0 -14 3 -4 15 7 8 14 15 16 15 2
0 4 -7 4 -15z m137 -87 c-3 -8 -6 -5 -6 6 -1 11 2 17 5 13 3 -3 4 -12 1 -19z
m396 5 c-7 -2 -19 -2 -25 0 -7 3 -2 5 12 5 14 0 19 -2 13 -5z m-459 -82 c-4
-19 -10 -29 -16 -23 -5 5 -4 20 3 36 16 33 21 28 13 -13z m631 -10 c3 -5 1
-12 -5 -16 -5 -3 -10 1 -10 9 0 18 6 21 15 7z"/>
<path d="M3632 9819 c-38 -24 -84 -76 -122 -139 -44 -74 -53 -105 -32 -122 10
-8 13 -9 9 -1 -4 6 -3 14 2 17 5 4 9 -8 8 -28 -1 -19 -5 -32 -8 -30 -6 4 -15
-22 -25 -69 -3 -15 -1 -17 11 -7 13 11 15 7 15 -23 0 -36 13 -56 25 -37 3 5
17 10 29 10 13 0 29 7 36 15 7 8 20 15 29 14 10 0 11 -2 4 -6 -21 -8 -16 -43
6 -43 29 0 34 16 15 45 -19 29 -34 31 -73 10 -28 -14 -29 -14 -36 12 -10 41
23 68 84 68 40 0 47 2 38 14 -8 9 -26 12 -60 8 -48 -4 -48 -4 -42 22 12 48 84
131 130 151 23 10 46 23 49 29 10 16 52 13 66 -4 7 -8 23 -15 37 -15 32 0 84
-23 105 -46 31 -36 61 -106 69 -162 8 -54 8 -53 4 15 -6 80 4 98 25 50 8 -20
15 -26 18 -17 11 43 12 43 38 19 24 -22 26 -22 22 -4 -2 11 -10 19 -18 17 -10
-2 -11 0 -3 10 12 15 8 55 -9 77 -7 9 0 5 16 -9 l28 -25 -30 45 c-45 67 -62
81 -162 131 -38 19 -62 23 -158 24 -90 0 -119 -3 -140 -16z"/>
<path d="M5036 9779 c-59 -14 -153 -68 -188 -108 -50 -57 -92 -156 -92 -221
-1 -30 3 -68 7 -84 7 -26 6 -28 -7 -17 -12 10 -17 9 -25 -7 -8 -16 -7 -22 7
-28 9 -4 21 -6 25 -5 4 0 21 -6 37 -14 16 -8 38 -15 50 -15 11 0 21 -4 21 -10
1 -5 2 -16 3 -22 3 -18 25 -11 47 15 l19 22 -10 -27 -10 -28 53 0 c41 1 48 3
34 11 -10 6 -25 8 -33 5 -22 -9 -17 4 21 45 19 22 35 45 36 52 0 6 2 19 4 28
4 22 -26 83 -61 121 -16 18 -25 29 -20 25 11 -8 76 50 76 68 0 7 9 20 20 30
10 9 19 20 18 24 0 3 0 19 1 35 1 29 1 29 52 23 58 -7 104 -32 92 -50 -16 -26
-9 -92 11 -116 12 -13 16 -21 10 -18 -6 4 -19 -2 -29 -13 -17 -19 -17 -20 -1
-20 31 0 76 -30 76 -50 0 -17 -3 -18 -27 -9 -43 16 -91 14 -113 -6 -10 -9 -18
-22 -17 -29 1 -6 -4 -10 -10 -8 -22 4 -14 -23 12 -48 37 -35 61 -18 57 39 -3
38 -1 41 21 41 31 0 61 -32 45 -48 -12 -12 -8 -15 40 -25 15 -4 22 0 22 10 0
12 3 13 13 4 9 -7 17 -7 24 0 6 6 18 3 35 -11 42 -33 54 -26 62 33 13 115 -3
190 -60 264 -70 93 -248 165 -348 142z m-78 -381 c23 -23 13 -38 -23 -38 -31
0 -35 3 -35 25 0 19 5 25 23 25 13 0 28 -5 35 -12z"/>
<path d="M6509 9765 c-25 -8 -54 -24 -64 -35 -10 -11 -27 -20 -37 -20 -30 0
-71 -25 -95 -59 -13 -16 -23 -33 -23 -36 0 -3 -10 -19 -22 -35 -12 -17 -23
-38 -24 -47 -8 -51 -24 -104 -48 -157 -17 -37 -25 -68 -21 -83 5 -23 25 -32
25 -12 0 7 11 9 29 6 16 -3 34 -1 41 6 10 9 14 9 17 -1 25 -67 117 -100 103
-37 -1 6 -3 29 -4 52 -2 40 -1 41 25 36 21 -4 27 -1 32 16 7 29 27 26 27 -4 0
-32 35 -35 45 -4 7 19 7 20 21 2 16 -22 18 -13 3 21 -7 15 -17 22 -26 19 -7
-3 -21 1 -31 9 -9 8 -29 14 -44 13 -37 -3 -37 22 -1 36 15 6 42 9 60 7 17 -1
35 1 39 5 7 7 -39 28 -67 30 -20 1 -19 19 2 44 9 10 23 35 33 56 9 20 22 37
29 38 7 0 22 2 35 5 64 12 155 -86 156 -168 1 -22 7 -42 15 -48 12 -7 9 -14
-17 -38 -18 -17 -32 -34 -32 -38 0 -4 5 -3 12 4 7 7 18 12 25 12 17 0 17 -27
1 -34 -7 -3 -4 -4 6 -3 29 3 55 -46 38 -73 -16 -26 -15 -30 3 -30 8 0 15 5 15
11 0 7 11 8 30 4 28 -6 30 -4 30 20 0 23 -2 26 -15 15 -9 -7 -15 -8 -15 -2 0
19 46 40 108 47 41 5 62 11 62 20 0 45 -25 177 -41 222 -27 71 -102 151 -176
188 -71 35 -189 44 -264 20z"/>
<path d="M7764 9760 c-81 -22 -234 -163 -270 -248 -8 -20 -22 -44 -30 -54 -9
-9 -19 -43 -24 -75 -4 -32 -10 -65 -14 -74 -6 -14 -1 -16 38 -13 25 2 48 -1
51 -6 3 -6 19 -10 35 -10 17 0 38 -9 51 -22 12 -13 19 -17 15 -10 -6 11 11 17
37 13 4 -1 15 15 24 34 13 27 21 34 35 29 19 -6 48 11 48 27 0 12 -57 11 -65
-1 -4 -6 -11 -8 -16 -5 -13 9 -11 43 4 48 10 4 10 6 0 6 -22 2 -14 27 11 39
14 6 44 28 68 49 l42 38 -22 -32 c-13 -18 -32 -39 -43 -47 -18 -12 -18 -14 -3
-20 11 -4 27 3 45 20 24 23 27 32 23 73 -4 38 -1 51 15 65 13 11 21 14 26 6 3
-5 11 -8 16 -5 5 4 9 -2 9 -12 0 -15 4 -14 24 7 13 14 23 30 22 35 0 6 5 9 12
7 8 -1 16 7 19 18 7 27 33 25 66 -5 25 -24 27 -32 27 -103 0 -83 4 -93 37
-111 28 -14 93 -109 93 -134 0 -14 4 -17 18 -12 9 5 35 13 58 19 l41 10 -4 45
c-2 25 -16 84 -30 130 -22 70 -35 92 -81 143 -60 65 -111 98 -187 121 -51 16
-188 26 -221 17z m-134 -175 c-14 -17 -30 -20 -30 -4 0 5 4 8 9 4 5 -3 12 -1
16 5 3 5 9 10 12 10 3 0 0 -7 -7 -15z m458 -57 c6 -13 12 -42 14 -66 l4 -42
-22 22 c-24 24 -27 36 -25 81 1 33 14 35 29 5z m-431 -190 c-3 -8 -6 -5 -6 6
-1 11 2 17 5 13 3 -3 4 -12 1 -19z"/>
<path d="M16606 9748 c-14 -20 -16 -96 -16 -625 l0 -602 22 -21 c17 -15 35
-20 80 -20 55 0 58 1 58 24 0 21 -6 25 -32 28 -26 2 -34 8 -36 27 -4 26 12 41
46 41 l22 0 0 585 0 585 -64 0 c-56 0 -67 -3 -80 -22z"/>
<path d="M10913 9624 c-3 -8 -1 -20 6 -27 8 -8 11 -4 9 16 -3 31 -6 34 -15 11z"/>
<path d="M10857 9533 c-4 -3 -7 -13 -7 -22 1 -13 3 -13 11 2 11 19 8 33 -4 20z"/>
<path d="M11055 9520 c-3 -5 -1 -10 4 -10 6 0 11 5 11 10 0 6 -2 10 -4 10 -3
0 -8 -4 -11 -10z"/>
<path d="M10959 9519 c0 -2 -2 -12 -4 -21 -2 -9 5 -24 16 -34 10 -9 17 -20 14
-24 -2 -4 9 -7 26 -6 39 1 35 26 -9 47 -18 10 -32 20 -32 24 1 4 -1 9 -4 13
-3 3 -6 3 -7 1z"/>
<path d="M10893 9488 c1 -28 20 -37 33 -16 4 7 3 8 -5 4 -7 -4 -15 2 -20 16
-10 22 -10 22 -8 -4z"/>
<path d="M9400 9490 c-24 -8 -24 -8 7 -9 17 -1 35 4 38 9 7 11 -9 11 -45 0z"/>
<path d="M10709 9483 c10 -4 5 -10 -15 -19 -18 -7 -22 -13 -12 -13 9 -1 24 -8
32 -17 15 -14 17 -14 22 0 3 9 12 16 20 16 12 0 12 4 2 20 -8 12 -23 20 -38
19 -14 0 -19 -3 -11 -6z"/>
<path d="M9424 9431 c2 -39 10 -45 35 -29 26 16 27 34 2 48 -31 16 -39 12 -37
-19z"/>
<path d="M9155 9441 c-3 -6 -3 -11 2 -11 4 0 1 -5 -7 -10 -11 -6 -12 -12 -4
-20 16 -16 46 -1 42 23 -3 23 -23 33 -33 18z"/>
<path d="M3920 9412 c0 -5 7 -15 15 -22 8 -7 15 -8 15 -2 0 5 -7 15 -15 22 -8
7 -15 8 -15 2z"/>
<path d="M4002 9400 c0 -14 2 -19 5 -12 2 6 2 18 0 25 -3 6 -5 1 -5 -13z"/>
<path d="M3865 9390 c-4 -7 -3 -16 3 -22 14 -14 45 -2 40 15 -6 16 -34 21 -43
7z"/>
<path d="M9601 9384 c0 -11 3 -14 6 -6 3 7 2 16 -1 19 -3 4 -6 -2 -5 -13z"/>
<path d="M4051 9354 c0 -11 3 -14 6 -6 3 7 2 16 -1 19 -3 4 -6 -2 -5 -13z"/>
<path d="M8013 9363 c-7 -3 -13 -11 -13 -19 0 -20 52 -15 58 5 3 10 0 12 -11
8 -9 -3 -17 -2 -19 2 -2 4 -9 6 -15 4z"/>
<path d="M10348 9343 c-37 -15 -46 -27 -30 -37 14 -9 82 16 82 30 0 21 -13 23
-52 7z"/>
<path d="M8070 9340 c0 -5 5 -10 11 -10 5 0 7 5 4 10 -3 6 -8 10 -11 10 -2 0
-4 -4 -4 -10z"/>
<path d="M11127 9310 c-6 -23 15 -27 32 -6 9 11 8 15 -5 20 -22 8 -21 9 -27
-14z"/>
<path d="M4514 9297 c-3 -8 -1 -25 6 -36 6 -12 7 -21 3 -22 -4 0 1 -4 12 -8
32 -13 36 -3 14 37 -27 47 -27 48 -35 29z"/>
<path d="M5303 9296 c-34 -10 -63 -35 -63 -52 0 -19 101 -23 107 -4 2 8 10 27
17 41 13 25 12 27 -10 25 -13 0 -36 -5 -51 -10z"/>
<path d="M9536 9294 c-21 -20 -21 -20 12 -18 15 0 26 4 25 7 -2 4 -3 12 -3 17
0 15 -16 12 -34 -6z"/>
<path d="M4595 9264 c3 -20 11 -46 17 -58 6 -11 14 -27 17 -35 4 -7 11 -13 16
-12 13 3 8 57 -7 84 -12 22 -14 28 -17 47 0 6 -8 10 -17 10 -13 0 -15 -7 -9
-36z"/>
<path d="M4685 9263 c10 -58 25 -102 38 -109 7 -4 9 -4 5 1 -4 4 -3 16 3 27 7
12 7 24 1 31 -5 7 -15 29 -21 50 -7 20 -17 37 -22 37 -6 0 -7 -16 -4 -37z"/>
<path d="M5433 9288 c-11 -16 -30 -55 -42 -90 -8 -22 -7 -26 4 -22 7 3 22 32
33 65 20 61 21 67 5 47z"/>
<path d="M5505 9262 c-10 -20 -22 -45 -27 -55 -8 -16 -7 -17 11 -5 12 7 21 17
21 23 0 5 7 22 14 37 8 15 11 30 6 33 -4 3 -16 -12 -25 -33z"/>
<path d="M3976 9262 c-4 -13 -5 -26 -2 -29 10 -11 18 4 14 29 l-4 23 -8 -23z"/>
<path d="M4452 9268 c-18 -18 -14 -38 8 -38 14 0 19 6 17 20 -4 27 -11 32 -25
18z"/>
<path d="M14360 9081 l0 -186 49 -3 c68 -3 189 -36 249 -66 224 -114 369 -321
391 -559 l6 -72 175 -3 c96 -1 179 -1 185 2 15 6 0 172 -24 268 -87 340 -345
622 -676 741 -82 29 -205 54 -292 60 l-63 3 0 -185z"/>
<path d="M5997 9253 c-4 -3 -7 -13 -7 -21 0 -18 13 -7 16 13 2 17 1 18 -9 8z"/>
<path d="M9501 9242 c-14 -27 -14 -32 3 -32 17 0 27 23 16 40 -6 10 -11 8 -19
-8z"/>
<path d="M3688 9243 c7 -3 16 -2 19 1 4 3 -2 6 -13 5 -11 0 -14 -3 -6 -6z"/>
<path d="M5073 9233 c9 -2 23 -2 30 0 6 3 -1 5 -18 5 -16 0 -22 -2 -12 -5z"/>
<path d="M6905 9206 c2 -22 9 -44 15 -50 7 -7 8 -2 1 19 -5 17 -12 39 -15 50
-3 11 -3 2 -1 -19z"/>
<path d="M10810 9230 c0 -5 4 -10 9 -10 6 0 13 5 16 10 3 6 -1 10 -9 10 -9 0
-16 -4 -16 -10z"/>
<path d="M7838 9223 c7 -3 16 -2 19 1 4 3 -2 6 -13 5 -11 0 -14 -3 -6 -6z"/>
<path d="M9220 9226 c0 -2 7 -6 15 -10 8 -3 15 -1 15 4 0 6 -7 10 -15 10 -8 0
-15 -2 -15 -4z"/>
<path d="M11177 9224 c-8 -8 1 -24 14 -24 5 0 9 7 9 15 0 15 -12 20 -23 9z"/>
<path d="M10178 9213 c7 -3 16 -2 19 1 4 3 -2 6 -13 5 -11 0 -14 -3 -6 -6z"/>
<path d="M6110 9188 c0 -13 5 -30 10 -38 7 -11 10 -7 10 17 0 17 -4 35 -10 38
-6 3 -10 -4 -10 -17z"/>
<path d="M6181 9194 c0 -11 3 -14 6 -6 3 7 2 16 -1 19 -3 4 -6 -2 -5 -13z"/>
<path d="M2046 9181 c-3 -4 -34 -11 -68 -14 -115 -11 -258 -86 -345 -180 -91
-99 -155 -236 -165 -354 l-5 -53 250 0 c273 0 285 -3 157 -46 -223 -75 -374
-267 -405 -511 l-7 -53 248 0 c143 0 244 -4 238 -9 -5 -5 -34 -16 -64 -26
-219 -69 -382 -270 -415 -512 l-7 -53 612 0 613 0 -7 60 c-27 236 -188 429
-428 513 l-63 22 248 3 247 2 0 28 c0 15 -7 58 -15 96 -42 200 -201 377 -395
442 -120 40 -103 44 164 44 l249 0 -7 58 c-22 193 -141 368 -318 465 -58 32
-169 67 -213 67 -19 0 -37 5 -40 10 -8 12 -52 13 -59 1z"/>
<path d="M3251 9174 c0 -11 3 -14 6 -6 3 7 2 16 -1 19 -3 4 -6 -2 -5 -13z"/>
<path d="M16280 6445 c0 -960 3 -1745 6 -1745 4 0 199 194 435 430 236 237
431 430 432 430 2 0 200 -196 440 -436 l437 -436 0 1751 0 1751 -875 0 -875 0
0 -1745z m1309 431 c237 -236 428 -433 425 -437 -7 -12 -1711 -12 -1718 0 -5
8 854 874 861 868 1 -1 196 -195 432 -431z"/>
<path d="M14380 8136 c0 -3 74 -81 165 -173 91 -92 165 -174 165 -182 0 -8
-74 -88 -165 -179 -91 -91 -165 -167 -165 -169 0 -1 155 -3 345 -3 l345 0 0
355 0 355 -345 0 c-190 0 -345 -2 -345 -4z"/>
<path d="M10883 7506 c1 -6 -3 -10 -8 -9 -6 1 -11 -9 -11 -22 0 -13 3 -22 6
-20 4 2 7 -2 7 -10 0 -7 -8 -12 -19 -10 -11 2 -18 -2 -18 -11 0 -8 4 -13 8
-10 5 3 9 -1 9 -9 0 -8 -5 -13 -11 -12 -6 1 -10 -4 -8 -10 1 -7 -4 -12 -10
-10 -7 1 -12 -3 -11 -9 1 -6 -5 -11 -13 -11 -10 0 -6 9 12 28 17 17 22 29 15
34 -7 4 -10 1 -9 -7 2 -7 -3 -12 -9 -10 -7 1 -12 -4 -10 -10 1 -7 -4 -12 -11
-10 -8 1 -11 -2 -8 -7 3 -5 -1 -14 -9 -21 -12 -10 -13 -16 -3 -28 10 -13 10
-14 1 -8 -8 4 -13 1 -13 -9 0 -10 5 -13 13 -9 6 4 4 -2 -6 -13 -9 -11 -14 -23
-10 -27 5 -4 1 -6 -7 -4 -8 2 -14 -3 -12 -9 1 -7 -4 -12 -10 -10 -7 1 -12 -3
-11 -9 1 -6 -5 -11 -13 -11 -10 0 -4 11 16 32 20 21 26 32 16 32 -8 0 -14 -5
-13 -11 1 -6 -4 -10 -10 -8 -7 1 -12 -4 -10 -10 1 -7 -4 -12 -10 -10 -7 1 -12
-4 -10 -10 1 -7 -3 -12 -9 -11 -6 1 -11 -4 -11 -12 0 -8 4 -12 9 -9 4 3 8 -2
8 -11 0 -9 -4 -13 -10 -10 -5 3 -10 -1 -10 -10 0 -10 -5 -13 -12 -9 -7 5 -8 3
-2 -7 13 -21 13 -39 1 -36 -7 1 -11 -4 -9 -11 1 -6 -4 -11 -10 -10 -7 2 -12
-3 -10 -10 1 -6 -4 -11 -10 -10 -7 2 -12 -2 -11 -8 1 -6 -5 -11 -13 -11 -9 0
1 17 26 42 25 25 35 42 26 42 -8 0 -14 -5 -13 -11 1 -6 -4 -10 -11 -8 -6 1
-11 -4 -10 -10 2 -7 -3 -12 -10 -10 -6 1 -11 -4 -10 -10 2 -7 -2 -12 -9 -11
-6 1 -10 -5 -8 -15 2 -9 4 -17 5 -17 1 0 3 -8 5 -17 2 -12 -3 -15 -16 -13 -13
3 -17 0 -12 -8 12 -20 12 -37 0 -34 -7 1 -11 -4 -9 -11 1 -6 -4 -11 -10 -10
-7 2 -12 -2 -11 -8 1 -6 -5 -11 -13 -11 -10 0 -4 11 16 32 20 21 26 32 16 32
-8 0 -14 -5 -13 -11 1 -6 -4 -10 -11 -8 -6 1 -11 -4 -10 -10 2 -7 -3 -12 -10
-10 -8 1 -11 -2 -8 -7 3 -5 -1 -14 -9 -21 -12 -10 -13 -16 -3 -28 10 -13 10
-14 1 -8 -8 4 -13 1 -13 -9 0 -10 5 -13 13 -9 6 4 4 -2 -6 -13 -9 -11 -14 -23
-10 -27 5 -4 1 -6 -7 -4 -8 2 -14 -3 -12 -10 1 -6 -4 -11 -10 -10 -7 2 -12 -3
-11 -9 2 -7 -3 -12 -10 -10 -6 1 -11 -3 -10 -9 1 -6 -5 -11 -13 -11 -9 0 1 17
26 42 25 25 35 42 26 42 -8 0 -14 -5 -13 -11 1 -6 -4 -10 -10 -8 -7 1 -12 -4
-10 -10 1 -7 -4 -12 -10 -11 -7 2 -12 -3 -10 -10 1 -6 -3 -11 -10 -10 -12 3
-12 -15 1 -36 6 -10 5 -12 -2 -7 -7 4 -12 1 -12 -9 0 -9 -4 -13 -10 -10 -5 3
-10 -1 -10 -10 0 -9 4 -14 8 -11 5 3 9 -1 9 -9 0 -8 -5 -13 -11 -12 -6 1 -10
-4 -9 -10 2 -7 -3 -12 -10 -10 -6 1 -11 -4 -10 -10 2 -7 -3 -12 -10 -10 -6 1
-11 -4 -9 -11 1 -8 -2 -11 -9 -7 -7 5 1 19 21 40 20 21 28 35 21 40 -7 4 -10
1 -9 -7 2 -7 -3 -12 -9 -11 -7 2 -12 -3 -10 -10 1 -6 -4 -11 -10 -10 -7 2 -12
-3 -10 -10 1 -6 -3 -11 -9 -10 -6 1 -11 -4 -11 -12 0 -8 4 -12 9 -9 4 3 8 -2
8 -11 0 -9 -4 -13 -10 -10 -5 3 -10 -1 -10 -10 0 -10 -5 -13 -12 -9 -9 6 -9 3
0 -9 12 -14 11 -16 -7 -12 -15 3 -19 0 -14 -8 12 -20 12 -37 0 -34 -7 1 -11
-4 -10 -10 2 -7 -3 -12 -10 -10 -6 1 -11 -4 -9 -11 1 -8 -2 -11 -9 -7 -7 5 -2
17 15 34 18 19 22 28 12 28 -8 0 -14 -5 -13 -11 1 -6 -4 -10 -11 -8 -8 1 -11
-2 -8 -7 3 -5 -1 -14 -9 -21 -12 -10 -13 -16 -3 -28 10 -13 10 -14 1 -8 -8 4
-13 1 -13 -9 0 -10 -5 -13 -12 -9 -7 5 -8 3 -2 -7 13 -21 13 -39 1 -36 -7 1
-11 -4 -10 -10 2 -7 -3 -12 -10 -10 -6 1 -11 -4 -10 -10 2 -7 -3 -12 -10 -10
-6 1 -11 -3 -10 -9 1 -6 -5 -11 -13 -11 -9 0 1 17 26 42 25 25 35 42 26 42 -8
0 -14 -5 -13 -11 1 -6 -4 -10 -10 -9 -7 2 -12 -3 -10 -10 1 -6 -4 -11 -10 -10
-7 2 -12 -3 -10 -10 1 -6 -3 -11 -10 -10 -12 3 -12 -15 1 -36 6 -10 5 -12 -2
-7 -7 4 -12 1 -12 -9 0 -9 -4 -13 -10 -10 -5 3 -10 -1 -10 -10 0 -9 4 -14 8
-11 5 3 9 -1 9 -9 0 -8 -5 -13 -11 -12 -6 1 -10 -4 -9 -10 2 -7 -3 -12 -10
-10 -6 1 -11 -4 -10 -10 2 -7 -3 -12 -10 -10 -6 1 -11 -3 -10 -9 1 -6 -5 -11
-13 -11 -9 0 -1 14 22 38 23 23 32 39 25 44 -7 4 -10 1 -9 -7 2 -7 -3 -12 -9
-11 -7 2 -12 -3 -10 -10 1 -6 -4 -11 -10 -10 -7 2 -12 -3 -10 -10 1 -6 -3 -11
-10 -10 -12 3 -12 -15 1 -36 6 -10 5 -12 -2 -7 -7 4 -12 1 -12 -9 0 -10 5 -13
13 -9 9 6 9 4 -1 -8 -7 -9 -22 -15 -33 -13 -13 3 -17 0 -12 -8 12 -20 12 -37
0 -34 -7 1 -11 -4 -9 -11 1 -6 -4 -11 -10 -10 -7 2 -12 -2 -11 -8 1 -6 -5 -11
-13 -11 -10 0 -4 11 16 32 20 21 26 32 16 32 -8 0 -14 -5 -13 -11 1 -6 -4 -10
-11 -8 -6 1 -11 -4 -10 -10 2 -7 -2 -12 -9 -11 -12 3 -12 -15 1 -36 6 -10 5
-12 -2 -7 -7 4 -12 1 -12 -8 0 -10 6 -13 15 -10 8 4 15 10 15 16 0 5 4 7 9 4
5 -4 11 -2 13 3 1 5 37 25 78 46 41 21 120 63 175 95 184 105 202 113 259 105
28 -4 58 -8 66 -10 8 -2 33 -6 55 -10 22 -4 85 -15 140 -25 55 -10 116 -21
135 -24 59 -10 93 -17 102 -22 4 -3 8 1 8 8 0 10 2 10 8 1 4 -7 23 -15 42 -18
19 -3 53 -10 75 -15 22 -5 58 -11 80 -14 22 -4 56 -9 75 -13 29 -5 33 -4 24 8
-7 8 -33 55 -60 104 -26 50 -57 102 -69 117 -21 25 -23 25 -41 10 -18 -16 -18
-16 -1 5 18 20 17 23 -14 85 -17 34 -48 92 -69 128 -21 36 -68 118 -105 183
l-67 117 12 68 c7 37 14 76 16 87 2 11 8 43 14 70 5 28 12 66 15 85 8 52 24
146 31 177 13 66 12 110 -1 110 -8 0 -13 -5 -12 -11z m14 -19 c0 -8 -6 -14
-14 -14 -9 0 -10 4 -2 14 6 7 12 13 14 13 1 0 2 -6 2 -13z m-103 -145 c3 -5
-1 -9 -9 -9 -8 0 -12 4 -9 9 3 4 7 8 9 8 2 0 6 -4 9 -8z m-300 -420 c3 -5 -1
-9 -9 -9 -8 0 -12 4 -9 9 3 4 7 8 9 8 2 0 6 -4 9 -8z"/>
<path d="M7822 7488 c-7 -7 -12 -18 -12 -25 0 -7 -4 -13 -9 -13 -5 0 -12 -12
-15 -26 -4 -14 -16 -35 -26 -47 -14 -14 -17 -24 -10 -31 5 -5 10 -19 10 -30 0
-12 -4 -16 -8 -11 -4 6 -18 11 -32 12 -14 1 -19 0 -12 -3 20 -9 14 -22 -13
-26 -24 -3 -24 -4 -10 -31 8 -15 10 -25 5 -22 -14 9 -61 -25 -53 -39 4 -8 3
-8 -6 0 -7 7 -21 9 -32 7 -16 -5 -17 -8 -7 -21 11 -13 11 -14 -1 -7 -11 6 -13
3 -9 -11 3 -13 0 -21 -11 -22 -9 -1 -25 -4 -36 -6 -11 -2 -28 -5 -37 -5 -10
-1 -18 -8 -18 -16 0 -8 -4 -15 -9 -15 -4 0 -23 -16 -42 -35 -19 -19 -44 -35
-56 -35 -12 0 -28 -6 -35 -13 -14 -14 -49 -31 -59 -29 -3 1 -21 -12 -40 -27
-32 -27 -33 -30 -18 -47 8 -11 16 -30 17 -42 0 -13 9 -30 19 -37 10 -7 19 -18
19 -24 1 -6 2 -18 3 -27 0 -8 5 -13 10 -10 5 4 11 2 13 -3 1 -6 14 -11 28 -13
14 -2 32 -8 40 -13 13 -8 13 -7 0 10 -14 17 -13 18 6 13 16 -4 25 1 35 19 9
16 19 23 31 20 10 -3 16 -2 13 3 -5 9 20 23 48 25 12 2 14 -1 7 -10 -6 -8 -5
-16 3 -24 9 -9 9 -14 -3 -21 -11 -7 -17 -4 -22 10 -10 26 -15 25 -14 -2 1 -13
-4 -22 -9 -21 -6 1 -11 -6 -12 -16 -1 -10 5 -18 12 -18 8 0 12 4 9 9 -8 12 10
10 23 -3 9 -9 11 -7 9 7 -3 20 10 34 32 34 9 0 10 -5 2 -19 -5 -11 -7 -21 -3
-24 14 -7 33 -2 32 8 -1 6 -6 9 -11 7 -6 -2 -8 4 -3 15 4 10 8 23 9 30 1 7 10
21 21 33 10 11 14 20 10 20 -5 0 -4 5 3 12 7 7 12 20 12 30 0 10 5 18 10 18 6
0 10 6 10 13 0 8 6 14 14 14 7 0 13 -7 11 -16 -1 -9 -8 -15 -14 -13 -6 1 -11
-8 -12 -20 -1 -42 -7 -60 -26 -75 -10 -8 -12 -11 -4 -7 9 5 12 3 7 -4 -4 -7
-14 -12 -21 -12 -11 0 -12 -6 -6 -23 6 -14 5 -30 -1 -41 -6 -10 -12 -36 -14
-58 -2 -21 -10 -51 -18 -66 -24 -46 -36 -103 -26 -122 5 -10 24 -23 42 -30 18
-6 45 -18 60 -26 18 -10 29 -11 33 -4 4 6 15 8 25 5 20 -6 60 36 60 64 0 9 7
30 16 46 9 17 22 47 30 68 15 42 41 103 55 129 5 10 9 31 9 47 0 16 6 34 14
40 8 7 13 23 10 36 -2 13 0 27 6 30 5 3 10 15 10 26 0 10 5 19 12 19 6 0 4 8
-6 19 -14 16 -15 20 -2 30 8 7 12 20 9 28 -5 12 -2 15 9 10 11 -4 15 0 13 11
-1 9 4 29 11 44 8 15 14 40 14 57 0 16 4 32 9 35 18 12 74 182 75 226 0 42
-26 72 -66 75 -3 0 -10 3 -14 8 -4 4 -18 7 -30 7 -13 0 -26 5 -29 10 -9 14
-58 13 -73 -2z m-325 -390 c-3 -8 -6 -5 -6 6 -1 11 2 17 5 13 3 -3 4 -12 1
-19z m103 -206 c0 -10 -3 -22 -7 -26 -5 -4 -8 -12 -8 -17 0 -5 -3 -8 -6 -6 -3
1 -13 -4 -22 -11 -10 -9 -17 -10 -22 -2 -3 5 -1 10 4 10 6 0 11 10 11 23 0 18
2 19 10 7 8 -12 10 -11 10 6 0 11 3 24 7 27 12 13 23 7 23 -11z"/>
<path d="M12989 7368 c-1 -2 -2 -56 -3 -122 l-2 -119 200 -204 c111 -112 204
-210 208 -217 4 -8 -65 -85 -200 -219 l-207 -207 1 -122 0 -123 322 -3 322 -2
0 670 0 670 -320 0 c-176 0 -321 -1 -321 -2z"/>
<path d="M14400 7038 l0 -333 332 330 c183 182 334 331 337 333 2 1 -147 2
-332 2 l-337 0 0 -332z"/>
<path d="M1030 6400 l0 -960 160 0 c88 0 160 3 160 8 0 4 5 36 11 72 12 78 30
133 65 203 26 51 111 167 123 167 3 0 25 18 49 40 24 22 46 40 50 40 11 0 117
54 123 64 4 5 19 9 33 9 15 0 29 3 32 8 2 4 11 6 19 2 8 -3 15 0 15 5 0 6 -10
13 -22 17 -288 79 -498 346 -498 631 0 130 65 320 139 404 16 19 27 39 24 44
-3 5 -1 6 4 3 13 -8 46 27 36 38 -5 4 -3 5 4 2 6 -4 13 -4 15 1 14 31 146 108
232 133 25 7 46 17 46 21 0 4 -184 8 -410 8 l-410 0 0 -960z"/>
<path d="M1868 7353 c7 -3 16 -2 19 1 4 3 -2 6 -13 5 -11 0 -14 -3 -6 -6z"/>
<path d="M2646 7293 c-11 -109 -58 -234 -120 -316 -57 -74 -73 -92 -125 -130
-67 -50 -193 -112 -243 -121 -21 -4 -38 -11 -38 -16 0 -6 3 -9 8 -8 30 8 203
-62 238 -96 6 -6 30 -26 55 -45 86 -66 160 -182 201 -314 31 -102 31 -295 0
-381 -62 -169 -184 -309 -333 -384 l-84 -42 -262 0 -263 0 0 -323 0 -322 323
0 322 0 3 -322 2 -323 320 0 320 0 0 -1295 0 -1295 428 2 427 3 -422 2 -423 3
0 970 0 970 154 0 155 0 0 48 c0 84 47 220 105 307 63 94 200 202 302 239 27
10 56 20 64 23 8 3 24 8 34 10 11 2 21 5 23 7 2 1 -34 15 -79 30 -214 71 -376
238 -434 451 -18 67 -24 219 -11 280 5 22 11 51 13 65 11 56 84 185 145 255
35 41 69 74 74 74 6 1 24 13 40 29 25 23 86 57 113 63 23 6 103 37 109 42 3 4
-179 7 -405 7 l-412 0 0 960 0 960 -159 0 -158 0 -7 -67z"/>
<path d="M7413 6755 c0 -8 4 -12 8 -9 4 2 10 -2 12 -8 4 -8 6 -9 6 -2 1 6 -5
17 -12 23 -10 8 -14 7 -14 -4z"/>
<path d="M7401 6704 c0 -11 3 -14 6 -6 3 7 2 16 -1 19 -3 4 -6 -2 -5 -13z"/>
<path d="M7486 6692 c3 -31 6 -33 26 -13 15 15 15 17 -6 27 -21 10 -23 8 -20
-14z"/>
<path d="M13730 6368 l0 -333 325 325 c179 179 325 328 325 332 0 5 -146 8
-325 8 l-325 0 0 -332z"/>
<path d="M7368 6633 c5 -21 7 -23 10 -9 2 10 0 22 -6 28 -6 6 -7 0 -4 -19z"/>
<path d="M7437 6639 c4 -13 8 -18 11 -10 2 7 -1 18 -6 23 -8 8 -9 4 -5 -13z"/>
<path d="M7296 6612 c-3 -5 1 -9 9 -9 8 0 12 4 9 9 -3 4 -7 8 -9 8 -2 0 -6 -4
-9 -8z"/>
<path d="M7271 6584 c0 -11 3 -14 6 -6 3 7 2 16 -1 19 -3 4 -6 -2 -5 -13z"/>
<path d="M7293 6578 c2 -7 10 -13 18 -13 8 0 13 -9 12 -19 -1 -12 2 -15 9 -8
13 13 -8 52 -28 52 -9 0 -14 -6 -11 -12z"/>
<path d="M7284 6516 c1 -8 5 -18 8 -22 4 -3 5 1 4 10 -1 8 -5 18 -8 22 -4 3
-5 -1 -4 -10z"/>
<path d="M7179 6493 c-13 -16 -12 -17 4 -4 9 7 17 15 17 17 0 8 -8 3 -21 -13z"/>
<path d="M7256 6487 c3 -10 9 -15 12 -12 3 3 0 11 -7 18 -10 9 -11 8 -5 -6z"/>
<path d="M7210 6465 c6 -8 18 -11 26 -8 18 7 13 12 -16 18 -18 3 -20 2 -10
-10z"/>
<path d="M7313 6435 c0 -8 4 -12 9 -9 5 3 6 10 3 15 -9 13 -12 11 -12 -6z"/>
<path d="M7160 6430 c0 -5 4 -10 9 -10 6 0 13 5 16 10 3 6 -1 10 -9 10 -9 0
-16 -4 -16 -10z"/>
<path d="M7208 6353 c7 -3 16 -2 19 1 4 3 -2 6 -13 5 -11 0 -14 -3 -6 -6z"/>
<path d="M7038 6338 c9 -9 15 -9 24 0 9 9 7 12 -12 12 -19 0 -21 -3 -12 -12z"/>
<path d="M7165 6340 c-3 -5 -2 -10 4 -10 5 0 13 5 16 10 3 6 2 10 -4 10 -5 0
-13 -4 -16 -10z"/>
<path d="M6908 6333 c7 -3 16 -2 19 1 4 3 -2 6 -13 5 -11 0 -14 -3 -6 -6z"/>
<path d="M6928 6313 c7 -3 16 -2 19 1 4 3 -2 6 -13 5 -11 0 -14 -3 -6 -6z"/>
<path d="M6960 6300 c0 -5 5 -10 10 -10 6 0 10 5 10 10 0 6 -4 10 -10 10 -5 0
-10 -4 -10 -10z"/>
<path d="M7135 6300 c3 -5 11 -10 16 -10 6 0 7 5 4 10 -3 6 -11 10 -16 10 -6
0 -7 -4 -4 -10z"/>
<path d="M6903 6274 c0 -16 13 -19 21 -5 3 5 0 11 -7 14 -8 3 -14 -1 -14 -9z"/>
<path d="M7110 6269 c0 -5 5 -7 10 -4 6 3 10 8 10 11 0 2 -4 4 -10 4 -5 0 -10
-5 -10 -11z"/>
<path d="M6829 6244 c-12 -14 2 -13 41 4 l25 11 -28 -2 c-16 -1 -33 -7 -38
-13z"/>
<path d="M6950 6240 c0 -5 5 -10 10 -10 6 0 10 5 10 10 0 6 -4 10 -10 10 -5 0
-10 -4 -10 -10z"/>
<path d="M6860 6220 c0 -5 5 -10 10 -10 6 0 10 5 10 10 0 6 -4 10 -10 10 -5 0
-10 -4 -10 -10z"/>
<path d="M6796 6199 c3 -5 12 -9 21 -9 19 0 9 13 -12 16 -8 1 -13 -2 -9 -7z"/>
<path d="M6720 6196 c0 -2 9 -6 20 -9 11 -3 18 -1 14 4 -5 9 -34 13 -34 5z"/>
<path d="M6775 6180 c3 -6 1 -10 -6 -10 -7 0 -10 -3 -6 -6 3 -3 13 -2 22 4 16
8 16 9 1 15 -10 4 -15 3 -11 -3z"/>
<path d="M6948 6173 c7 -3 16 -2 19 1 4 3 -2 6 -13 5 -11 0 -14 -3 -6 -6z"/>
<path d="M6733 6140 c-1 -11 2 -20 7 -20 10 0 20 26 13 34 -12 11 -19 6 -20
-14z"/>
<path d="M6893 6139 c-2 -23 3 -25 10 -4 4 8 3 16 -1 19 -4 3 -9 -4 -9 -15z"/>
<path d="M6695 6110 c-3 -5 -2 -10 4 -10 5 0 13 5 16 10 3 6 2 10 -4 10 -5 0
-13 -4 -16 -10z"/>
<path d="M6647 6094 c-8 -8 1 -24 12 -24 4 0 8 7 8 15 0 16 -9 20 -20 9z"/>
<path d="M6805 6091 c-3 -5 -2 -12 3 -15 5 -3 9 1 9 9 0 17 -3 19 -12 6z"/>
<path d="M6543 6073 c4 -3 2 -12 -4 -19 -14 -17 17 -12 34 6 9 10 9 11 0 6 -7
-4 -13 -2 -13 3 0 6 -5 11 -12 11 -6 0 -8 -3 -5 -7z"/>
<path d="M6705 6061 c-6 -11 13 -26 22 -17 4 3 0 6 -8 6 -11 0 -11 2 1 10 9 6
10 10 3 10 -6 0 -14 -4 -18 -9z"/>
<path d="M6600 6040 c-14 -11 -20 -20 -13 -20 6 0 15 5 18 11 4 6 17 14 29 19
12 5 15 9 6 9 -8 0 -26 -8 -40 -19z"/>
<path d="M6520 6011 c0 -5 7 -12 16 -15 24 -9 27 -7 10 9 -17 17 -26 19 -26 6z"/>
<path d="M6512 5976 c7 -8 15 -12 17 -11 5 6 -10 25 -20 25 -5 0 -4 -6 3 -14z"/>
<path d="M6548 5973 c7 -3 16 -2 19 1 4 3 -2 6 -13 5 -11 0 -14 -3 -6 -6z"/>
<path d="M6620 5964 c0 -8 5 -12 10 -9 6 4 8 11 5 16 -9 14 -15 11 -15 -7z"/>
<path d="M12310 5286 c0 -646 0 -655 20 -661 11 -3 20 -11 20 -16 0 -5 255 -9
650 -9 l650 0 0 670 0 670 -670 0 -670 0 0 -654z"/>
<path d="M6403 5923 c9 -14 -32 -55 -49 -49 -12 4 -12 2 -4 -14 12 -23 25 -26
36 -8 4 7 3 8 -4 4 -7 -4 -12 -2 -12 3 0 11 15 15 35 11 6 -1 7 2 3 5 -4 4 -3
16 2 26 7 12 6 20 -2 25 -6 4 -8 3 -5 -3z"/>
<path d="M6432 5908 c-15 -15 -15 -28 -1 -28 5 0 8 4 5 9 -4 5 0 11 6 14 7 2
10 7 7 10 -3 4 -11 1 -17 -5z"/>
<path d="M6585 5910 c-3 -5 -2 -10 4 -10 5 0 13 5 16 10 3 6 2 10 -4 10 -5 0
-13 -4 -16 -10z"/>
<path d="M6544 5875 c-10 -8 -14 -15 -8 -15 6 0 17 7 24 15 16 19 9 19 -16 0z"/>
<path d="M6505 5869 c-4 -6 -5 -12 -2 -15 2 -3 7 2 10 11 7 17 1 20 -8 4z"/>
<path d="M6323 5858 c3 -9 -1 -19 -9 -22 -15 -6 -20 -26 -6 -26 16 0 30 37 20
51 -8 11 -9 11 -5 -3z"/>
<path d="M6267 5820 c-9 -11 -13 -20 -7 -20 5 0 14 9 20 20 6 11 9 20 8 20 -2
0 -11 -9 -21 -20z"/>
<path d="M6480 5831 c0 -6 4 -13 10 -16 6 -3 7 1 4 9 -7 18 -14 21 -14 7z"/>
<path d="M6280 5787 c0 -20 -16 -23 -23 -4 -4 9 -6 9 -6 0 -1 -7 9 -17 20 -24
13 -6 19 -7 15 -1 -3 6 0 12 6 15 10 4 11 7 1 18 -11 11 -13 10 -13 -4z"/>
<path d="M6130 5746 c4 -4 16 -4 26 2 16 9 14 10 -8 9 -15 -1 -23 -6 -18 -11z"/>
<path d="M6080 5715 c-7 -9 -8 -15 -2 -15 5 0 12 7 16 15 3 8 4 15 2 15 -2 0
-9 -7 -16 -15z"/>
<path d="M6120 5719 c0 -5 5 -7 10 -4 6 3 10 8 10 11 0 2 -4 4 -10 4 -5 0 -10
-5 -10 -11z"/>
<path d="M5999 5684 c-1 -5 -1 -12 0 -16 2 -12 -13 -9 -29 5 -11 9 -11 8 0 -7
14 -18 13 -19 -2 -13 -10 3 -18 2 -18 -3 0 -13 37 -13 45 1 5 7 14 4 28 -8
l20 -18 -18 30 c-25 40 -25 40 -26 29z"/>
<path d="M6120 5676 c0 -2 8 -10 18 -17 15 -13 16 -12 3 4 -13 16 -21 21 -21
13z"/>
<path d="M6060 5642 c0 -11 4 -23 9 -27 6 -3 8 4 6 16 -6 30 -15 37 -15 11z"/>
<path d="M5820 5610 c0 -5 7 -10 16 -10 11 0 14 -5 9 -17 -5 -14 -4 -15 6 -6
10 10 9 15 -1 28 -14 17 -30 20 -30 5z"/>
<path d="M6106 5605 c4 -8 8 -15 10 -15 2 0 4 7 4 15 0 8 -4 15 -10 15 -5 0
-7 -7 -4 -15z"/>
<path d="M5956 5597 c3 -10 9 -15 12 -12 3 3 0 11 -7 18 -10 9 -11 8 -5 -6z"/>
<path d="M5880 5590 c0 -5 5 -10 10 -10 6 0 10 5 10 10 0 6 -4 10 -10 10 -5 0
-10 -4 -10 -10z"/>
<path d="M5725 5578 c-3 -7 -3 -22 -1 -33 3 -11 5 -25 5 -32 1 -6 13 -16 29
-21 22 -9 23 -11 7 -12 -11 -1 -27 -1 -35 0 -8 1 -12 -1 -8 -6 4 -4 3 -13 -4
-21 -9 -11 -7 -12 7 -7 12 5 16 4 11 -4 -3 -6 -1 -14 5 -18 8 -4 9 -3 5 4 -4
7 -1 12 10 12 14 0 14 3 4 15 -12 14 -10 15 14 11 15 -3 24 -1 21 5 -4 5 -1 9
4 9 6 0 11 4 11 10 0 5 -7 7 -16 3 -14 -5 -14 -3 -3 15 14 23 40 34 81 35 15
1 30 8 33 16 3 9 3 12 -1 8 -4 -4 -13 -2 -21 4 -10 9 -17 8 -29 -2 -13 -10
-19 -10 -36 0 -16 10 -18 10 -12 0 5 -9 2 -10 -12 -5 -10 5 -25 9 -31 9 -7 0
-13 4 -13 9 0 13 -20 9 -25 -4z m68 -30 c6 -18 -11 -48 -27 -48 -8 0 -16 9
-19 20 -6 24 8 27 21 4 8 -15 10 -15 15 0 4 9 2 15 -5 13 -6 -1 -13 4 -15 11
-3 6 2 12 10 12 9 0 17 -6 20 -12z"/>
<path d="M6012 5568 c-7 -7 -12 -17 -12 -22 0 -6 5 -3 11 7 5 9 14 17 19 17 5
0 6 -8 3 -17 -6 -16 -5 -16 11 -4 13 11 14 16 4 22 -17 12 -22 11 -36 -3z"/>
<path d="M5687 5547 c4 -7 0 -8 -11 -4 -9 4 -15 3 -11 -2 3 -5 -1 -12 -7 -15
-7 -3 1 -3 17 1 40 8 51 19 26 26 -14 3 -19 1 -14 -6z"/>
<path d="M5935 5530 c-3 -5 -1 -10 4 -10 6 0 11 5 11 10 0 6 -2 10 -4 10 -3 0
-8 -4 -11 -10z"/>
<path d="M5581 5509 c-14 -6 -21 -15 -18 -23 3 -8 1 -17 -6 -19 -7 -3 -2 -4
10 -4 12 1 25 7 27 13 3 7 14 10 25 7 12 -3 21 -1 21 5 0 19 -33 30 -59 21z"/>
<path d="M5651 5494 c0 -11 3 -14 6 -6 3 7 2 16 -1 19 -3 4 -6 -2 -5 -13z"/>
<path d="M5820 5501 c0 -6 4 -13 10 -16 6 -3 7 1 4 9 -7 18 -14 21 -14 7z"/>
<path d="M5390 5460 c-8 -5 -10 -10 -5 -10 6 0 17 5 25 10 8 5 11 10 5 10 -5
0 -17 -5 -25 -10z"/>
<path d="M5505 5463 c-33 -8 -47 -24 -35 -38 8 -10 5 -13 -15 -11 -14 0 -25 7
-25 15 0 11 -4 11 -18 -2 -23 -21 -36 -22 -28 -1 4 11 0 15 -16 12 -14 -2 -25
-13 -29 -28 -7 -23 -10 -23 -13 -1 0 5 -5 13 -10 18 -5 4 -6 3 -3 -4 10 -17
-22 -46 -37 -34 -9 7 -17 7 -26 -2 -10 -10 -11 -9 -5 3 6 12 5 13 -6 3 -16
-16 -33 -17 -24 -2 4 6 -2 5 -13 -2 -25 -15 -23 -19 45 -93 46 -50 53 -54 67
-41 8 8 21 15 28 15 7 0 2 9 -12 20 -14 11 -18 18 -9 14 10 -3 20 -1 24 5 3 6
1 11 -4 11 -6 0 -11 4 -11 8 0 5 7 9 15 9 8 0 15 -6 15 -14 0 -13 12 -17 39
-14 8 2 10 -2 5 -10 -5 -8 -3 -10 5 -4 9 5 10 10 2 18 -18 18 -12 28 10 17 20
-11 20 -12 3 -38 -15 -23 -15 -25 -1 -14 23 19 31 50 17 67 -14 17 -6 19 20 5
11 -6 17 -16 14 -23 -3 -8 2 -14 11 -14 8 0 13 3 10 5 -3 3 0 11 7 19 8 10 8
12 -3 8 -10 -4 -15 3 -17 20 -1 20 3 25 20 25 21 0 21 1 3 13 -17 13 -16 14 6
13 23 -1 39 -12 39 -29 0 -5 -4 -6 -9 -3 -5 3 -11 -5 -13 -17 -4 -20 -1 -23
18 -19 13 2 23 7 22 11 -2 18 3 22 16 12 12 -10 13 -8 9 8 -4 16 -1 21 16 21
11 0 21 6 21 14 0 12 5 12 30 3 17 -6 30 -15 30 -20 0 -4 -5 -5 -12 -1 -7 4
-8 3 -4 -5 12 -19 25 -2 24 32 -1 25 -6 33 -20 34 -10 1 -16 -2 -13 -8 4 -5
-1 -9 -9 -9 -9 0 -16 7 -16 16 0 11 -6 9 -22 -9 -26 -26 -69 -48 -50 -24 7 8
9 17 5 20 -10 11 -43 8 -43 -3 0 -5 -5 -10 -10 -10 -7 0 -7 6 0 20 6 11 9 19
8 19 -2 -1 -12 -4 -23 -6z m-85 -79 c0 -8 -4 -12 -10 -9 -5 3 -10 10 -10 16 0
5 5 9 10 9 6 0 10 -7 10 -16z m-35 -14 c3 -5 -1 -10 -9 -10 -9 0 -16 5 -16 10
0 6 4 10 9 10 6 0 13 -4 16 -10z"/>
<path d="M4580 5392 c0 -70 -25 -156 -71 -249 -73 -145 -218 -270 -376 -322
-34 -12 -70 -21 -80 -21 -39 0 35 -29 112 -44 37 -7 151 -81 209 -136 86 -81
122 -134 163 -240 124 -317 -12 -663 -323 -820 l-89 -45 -247 -3 -248 -3 0
-325 0 -324 320 0 320 0 0 -320 0 -320 325 0 325 0 0 645 c0 423 -3 645 -10
645 -7 0 -10 328 -10 965 l0 965 -160 0 -160 0 0 -48z"/>
<path d="M5643 5372 c-1 -22 0 -24 9 -8 6 10 6 22 2 26 -5 5 -10 -3 -11 -18z"/>
<path d="M10657 5148 c6 -11 185 -257 225 -310 7 -9 20 -26 28 -38 88 -127
135 -173 125 -120 -2 11 1 19 8 17 7 -1 11 8 11 21 -1 17 1 20 12 11 10 -8 12
-6 9 10 -2 13 1 21 10 21 8 0 12 8 10 20 -2 11 1 19 8 17 7 -1 11 8 11 20 -1
12 4 21 10 20 6 -1 10 8 10 21 -1 17 1 20 12 11 10 -8 12 -6 9 10 -2 12 1 20
8 18 7 -1 11 8 11 20 -1 12 4 21 10 20 6 -1 10 8 10 20 -1 12 4 21 10 20 6 -1
10 8 10 21 -1 19 1 20 14 10 10 -8 13 -8 9 -2 -4 7 0 17 7 24 8 6 13 20 11 31
-2 11 0 17 5 14 5 -3 11 -1 15 5 3 5 -2 10 -12 11 -16 0 -16 1 2 9 24 11 25
10 -150 24 -55 4 -118 9 -140 12 -48 5 -292 24 -312 24 -9 0 -11 -5 -6 -12z"/>
<path d="M16280 4118 l0 -433 430 430 c237 236 430 431 430 432 0 2 -193 3
-430 3 l-430 0 0 -432z"/>
<path d="M17590 4120 c237 -236 433 -430 435 -430 3 0 5 194 5 430 l0 430
-436 0 -436 0 432 -430z"/>
<path d="M3838 4143 c7 -3 16 -2 19 1 4 3 -2 6 -13 5 -11 0 -14 -3 -6 -6z"/>
<path d="M6398 3968 c9 -9 15 -9 24 0 9 9 7 12 -12 12 -19 0 -21 -3 -12 -12z"/>
<path d="M16280 3233 l0 -428 425 425 c234 234 425 426 425 427 0 2 -191 3
-425 3 l-425 0 0 -427z"/>
<path d="M17196 3638 c14 -16 807 -807 829 -827 3 -2 5 188 5 422 l0 427 -427
0 -426 0 19 -22z"/>
<path d="M6520 3494 c0 -24 1 -24 101 -24 98 0 100 0 97 23 -3 21 -7 22 -100
23 -97 2 -98 1 -98 -22z"/>
<path d="M6780 3425 c0 -2 205 -209 455 -459 250 -249 455 -460 455 -467 0 -8
-207 -222 -459 -476 l-460 -463 930 0 c613 0 929 3 929 10 0 7 317 10 930 10
l930 0 0 925 0 925 -1855 0 c-1020 0 -1855 -2 -1855 -5z m3280 -1025 c0 -319
-3 -581 -7 -582 -5 0 -192 -2 -416 -3 l-409 -2 -9 24 c-6 17 -16 23 -39 23
-25 0 -30 4 -30 24 0 24 16 36 51 36 18 0 19 14 19 530 l0 530 420 0 420 0 0
-580z"/>
<path d="M12059 3126 c-2 -2 -33 -6 -69 -10 -36 -3 -74 -8 -85 -10 -11 -2 -71
-10 -133 -17 -61 -7 -112 -16 -112 -19 0 -4 19 -24 43 -45 23 -21 76 -68 117
-106 121 -109 134 -119 155 -119 11 0 16 4 10 8 -13 9 -19 35 -6 28 5 -4 12
-2 16 4 3 5 -2 10 -12 11 -13 1 -11 3 7 9 14 4 19 8 11 9 -11 1 -11 4 0 17 10
13 10 17 -2 25 -11 7 -10 9 5 9 11 0 16 3 13 7 -4 3 -2 13 5 20 9 11 9 17 -3
24 -11 7 -10 9 5 9 11 0 16 3 13 7 -4 3 -2 13 5 20 9 11 9 17 -3 24 -11 7 -11
9 4 9 10 0 16 4 12 9 -3 5 0 13 6 16 5 4 8 13 5 20 -3 8 -1 15 4 17 5 2 6 9 1
16 -4 7 -9 11 -12 8z"/>
<path d="M16280 2758 l0 -38 393 0 393 0 32 26 c18 15 32 31 32 35 0 5 -191
10 -425 11 l-425 3 0 -37z"/>
<path d="M17596 2793 l-430 -3 34 -35 34 -35 398 0 398 0 0 40 c0 22 -1 39 -2
38 -2 -2 -196 -4 -432 -5z"/>
<path d="M4658 1563 c45 -2 119 -2 165 0 45 1 8 3 -83 3 -91 0 -128 -2 -82 -3z"/>
</g>
</svg>
